<mxfile host="65bd71144e">
    <diagram id="Zn7ynxjaJu9Eo4BKZPCl" name="Page-1">
        <mxGraphModel dx="1819" dy="994" grid="1" gridSize="10" guides="1" tooltips="1" connect="1" arrows="1" fold="1" page="1" pageScale="1" pageWidth="850" pageHeight="1100" math="0" shadow="0">
            <root>
                <mxCell id="0"/>
                <mxCell id="1" parent="0"/>
                <mxCell id="9" style="edgeStyle=none;html=1;startArrow=classic;startFill=1;entryX=0;entryY=0.25;entryDx=0;entryDy=0;" edge="1" parent="1" source="4" target="6">
                    <mxGeometry relative="1" as="geometry"/>
                </mxCell>
                <mxCell id="11" style="edgeStyle=none;html=1;entryX=0;entryY=0.75;entryDx=0;entryDy=0;startArrow=classic;startFill=1;endArrow=none;endFill=0;" edge="1" parent="1" source="10" target="6">
                    <mxGeometry relative="1" as="geometry"/>
                </mxCell>
                <mxCell id="18" value="Host OS" style="swimlane;whiteSpace=wrap;html=1;fillColor=#072A3B;" vertex="1" parent="1">
                    <mxGeometry x="10" y="10" width="280" height="940" as="geometry"/>
                </mxCell>
                <mxCell id="4" value="Cli" style="rounded=1;whiteSpace=wrap;html=1;fillColor=#0050ef;fontColor=#ffffff;strokeColor=#001DBC;" vertex="1" parent="18">
                    <mxGeometry x="32.5" y="40" width="120" height="60" as="geometry"/>
                </mxCell>
                <mxCell id="10" value="Docker Cli" style="rounded=1;whiteSpace=wrap;html=1;fillColor=#647687;strokeColor=#314354;fontColor=#ffffff;" vertex="1" parent="18">
                    <mxGeometry x="32.5" y="110" width="117.5" height="60" as="geometry"/>
                </mxCell>
                <mxCell id="20" value="Docker" style="swimlane;whiteSpace=wrap;html=1;fillColor=#072A3B;" vertex="1" parent="1">
                    <mxGeometry x="310" y="10" width="540" height="940" as="geometry"/>
                </mxCell>
                <mxCell id="21" style="edgeStyle=none;html=1;exitX=1;exitY=0.25;exitDx=0;exitDy=0;startArrow=classic;startFill=1;endArrow=classic;endFill=1;" edge="1" parent="20" source="6" target="7">
                    <mxGeometry relative="1" as="geometry"/>
                </mxCell>
                <mxCell id="22" style="edgeStyle=none;html=1;exitX=1;exitY=0.75;exitDx=0;exitDy=0;entryX=0;entryY=0.5;entryDx=0;entryDy=0;startArrow=classic;startFill=1;endArrow=classic;endFill=1;" edge="1" parent="20" source="6" target="8">
                    <mxGeometry relative="1" as="geometry"/>
                </mxCell>
                <mxCell id="6" value="Api Webservice" style="shape=process;whiteSpace=wrap;html=1;backgroundOutline=1;fillColor=#0050ef;fontColor=#ffffff;strokeColor=#001DBC;" vertex="1" parent="20">
                    <mxGeometry x="55" y="40" width="210" height="130" as="geometry"/>
                </mxCell>
                <mxCell id="7" value="Dns Server" style="shape=process;whiteSpace=wrap;html=1;backgroundOutline=1;fillColor=#a20025;fontColor=#ffffff;strokeColor=#6F0000;" vertex="1" parent="20">
                    <mxGeometry x="300" y="30" width="210" height="60" as="geometry"/>
                </mxCell>
                <mxCell id="8" value="Traefik Server" style="shape=process;whiteSpace=wrap;html=1;backgroundOutline=1;fillColor=#a20025;fontColor=#ffffff;strokeColor=#6F0000;" vertex="1" parent="20">
                    <mxGeometry x="310" y="110" width="210" height="60" as="geometry"/>
                </mxCell>
                <mxCell id="14" value="Dev Container" style="swimlane;whiteSpace=wrap;html=1;fillColor=#008a00;fontColor=#ffffff;strokeColor=#005700;" vertex="1" parent="20">
                    <mxGeometry x="60" y="220" width="200" height="200" as="geometry"/>
                </mxCell>
                <mxCell id="17" style="edgeStyle=none;html=1;startArrow=classic;startFill=1;endArrow=classic;endFill=1;" edge="1" parent="14" source="14">
                    <mxGeometry relative="1" as="geometry">
                        <mxPoint x="20" y="179.31818181818176" as="targetPoint"/>
                    </mxGeometry>
                </mxCell>
                <mxCell id="15" value="Cli" style="rounded=1;whiteSpace=wrap;html=1;fillColor=#0050ef;fontColor=#ffffff;strokeColor=#001DBC;" vertex="1" parent="14">
                    <mxGeometry x="30" y="40" width="120" height="60" as="geometry"/>
                </mxCell>
                <mxCell id="16" style="edgeStyle=none;html=1;startArrow=classic;startFill=1;endArrow=classic;endFill=1;" edge="1" parent="20" source="15" target="6">
                    <mxGeometry relative="1" as="geometry">
                        <mxPoint x="108" y="170" as="targetPoint"/>
                    </mxGeometry>
                </mxCell>
            </root>
        </mxGraphModel>
    </diagram>
</mxfile>
